<svg xmlns="http://www.w3.org/2000/svg" height="24" viewBox="0 -960 960 960" width="24"><path d="M627.692-464.615 477.077-608.923q-26.385-25.385-44.039-56.802-17.653-31.417-17.653-68.429 0-44.103 30.871-74.974Q477.128-840 521.231-840q32.769 0 59.615 17.73 26.846 17.731 46.846 43.039 20-25.308 46.847-43.039Q701.385-840 734.154-840q44.103 0 74.974 30.872Q840-778.257 840-734.154q0 37.012-17.538 68.429-17.539 31.417-43.923 56.802L627.692-464.615Zm0-55.078 119.77-114.692q21.307-20.538 36.923-45.5Q800-704.846 800-734.154q0-27.385-19.231-46.615Q761.539-800 734.154-800q-24 0-43.038 14.346-19.039 14.346-34.193 33.808l-29.231 36.615-29.231-36.615q-15.153-19.462-34.192-33.808Q545.231-800 521.231-800q-27.385 0-46.615 19.231-19.231 19.23-19.231 46.615 0 29.308 15.615 54.269 15.616 24.962 36.923 45.5l119.769 114.692ZM256.154-213.846l302.615 88.307 239.539-74q-1.154-18.23-10.89-26.269-9.736-8.038-22.033-8.038H575.598q-25.367 0-45.983-2-20.615-2-42.23-9.539l-87.616-28.692 13.539-39.539 81 29.308q19.307 7.308 43.846 8.769 24.538 1.462 67.231 1.693 0-18.693-6.885-30.231-6.885-11.539-19.731-16.077l-230.154-84.462q-2.307-.769-4.23-1.153-1.923-.385-4.231-.385h-84v192.308ZM96.154-120v-326.154h243.095q5.597 0 11.52 1.269 5.923 1.269 11 2.961l231.154 84.693q21.462 8.154 36.962 29.308 15.5 21.153 15.5 54.077h120q36.154 0 55.384 22.615Q840-228.616 840-193.846v24.615L560.769-83.077l-304.615-88.769V-120h-160Zm40-40h80v-246.154h-80V-160Zm491.538-555.231Z"/></svg>